<svg xmlns="http://www.w3.org/2000/svg" viewBox="0 0 1800 1000">
  <!-- Background -->
  <rect width="1800" height="1000" fill="#f5f5f5"/>
  
  <!-- Title -->
  <text x="900" y="50" font-family="Arial" font-size="36" text-anchor="middle" font-weight="bold" fill="#333">Flutter Fundraising Goal Chart - Architecture</text>
  
  <!-- User layer -->
  <rect x="100" y="100" width="1600" height="150" rx="10" ry="10" fill="#e3f2fd" stroke="#0d47a1" stroke-width="2"/>
  <text x="900" y="150" font-family="Arial" font-size="24" text-anchor="middle" font-weight="bold" fill="#0d47a1">User Interface Layer</text>
  
  <!-- User layer components -->
  <rect x="150" y="170" width="220" height="60" rx="5" ry="5" fill="#bbdefb" stroke="#1976d2" stroke-width="1"/>
  <text x="260" y="205" font-family="Arial" font-size="18" text-anchor="middle" fill="#1976d2">Auth Views</text>
  
  <rect x="400" y="170" width="220" height="60" rx="5" ry="5" fill="#bbdefb" stroke="#1976d2" stroke-width="1"/>
  <text x="510" y="205" font-family="Arial" font-size="18" text-anchor="middle" fill="#1976d2">Home Views</text>
  
  <rect x="650" y="170" width="220" height="60" rx="5" ry="5" fill="#bbdefb" stroke="#1976d2" stroke-width="1"/>
  <text x="760" y="205" font-family="Arial" font-size="18" text-anchor="middle" fill="#1976d2">Donation Views</text>
  
  <rect x="900" y="170" width="220" height="60" rx="5" ry="5" fill="#bbdefb" stroke="#1976d2" stroke-width="1"/>
  <text x="1010" y="205" font-family="Arial" font-size="18" text-anchor="middle" fill="#1976d2">Fundraising Views</text>
  
  <rect x="1150" y="170" width="220" height="60" rx="5" ry="5" fill="#bbdefb" stroke="#1976d2" stroke-width="1"/>
  <text x="1260" y="205" font-family="Arial" font-size="18" text-anchor="middle" fill="#1976d2">Dashboard Views</text>
  
  <rect x="1400" y="170" width="220" height="60" rx="5" ry="5" fill="#bbdefb" stroke="#1976d2" stroke-width="1"/>
  <text x="1510" y="205" font-family="Arial" font-size="18" text-anchor="middle" fill="#1976d2">Analytics Views</text>
  
  <!-- Business logic layer -->
  <rect x="100" y="300" width="1600" height="150" rx="10" ry="10" fill="#e8f5e9" stroke="#1b5e20" stroke-width="2"/>
  <text x="900" y="350" font-family="Arial" font-size="24" text-anchor="middle" font-weight="bold" fill="#1b5e20">Business Logic Layer (View Models)</text>
  
  <!-- Business logic components -->
  <rect x="150" y="370" width="220" height="60" rx="5" ry="5" fill="#c8e6c9" stroke="#388e3c" stroke-width="1"/>
  <text x="260" y="405" font-family="Arial" font-size="18" text-anchor="middle" fill="#388e3c">Auth View Model</text>
  
  <rect x="400" y="370" width="220" height="60" rx="5" ry="5" fill="#c8e6c9" stroke="#388e3c" stroke-width="1"/>
  <text x="510" y="405" font-family="Arial" font-size="18" text-anchor="middle" fill="#388e3c">Member View Model</text>
  
  <rect x="650" y="370" width="220" height="60" rx="5" ry="5" fill="#c8e6c9" stroke="#388e3c" stroke-width="1"/>
  <text x="760" y="405" font-family="Arial" font-size="18" text-anchor="middle" fill="#388e3c">Donation View Model</text>
  
  <rect x="900" y="370" width="220" height="60" rx="5" ry="5" fill="#c8e6c9" stroke="#388e3c" stroke-width="1"/>
  <text x="1010" y="405" font-family="Arial" font-size="18" text-anchor="middle" fill="#388e3c">Fundraising View Model</text>
  
  <rect x="1150" y="370" width="220" height="60" rx="5" ry="5" fill="#c8e6c9" stroke="#388e3c" stroke-width="1"/>
  <text x="1260" y="405" font-family="Arial" font-size="18" text-anchor="middle" fill="#388e3c">Analytics View Model</text>
  
  <rect x="1400" y="370" width="220" height="60" rx="5" ry="5" fill="#c8e6c9" stroke="#388e3c" stroke-width="1"/>
  <text x="1510" y="405" font-family="Arial" font-size="18" text-anchor="middle" fill="#388e3c">Campaign View Model</text>
  
  <!-- Service layer -->
  <rect x="100" y="500" width="1600" height="150" rx="10" ry="10" fill="#fff3e0" stroke="#e65100" stroke-width="2"/>
  <text x="900" y="550" font-family="Arial" font-size="24" text-anchor="middle" font-weight="bold" fill="#e65100">Service Layer</text>
  
  <!-- Service components -->
  <rect x="150" y="570" width="220" height="60" rx="5" ry="5" fill="#ffe0b2" stroke="#f57c00" stroke-width="1"/>
  <text x="260" y="605" font-family="Arial" font-size="18" text-anchor="middle" fill="#f57c00">Auth Service</text>
  
  <rect x="400" y="570" width="220" height="60" rx="5" ry="5" fill="#ffe0b2" stroke="#f57c00" stroke-width="1"/>
  <text x="510" y="605" font-family="Arial" font-size="18" text-anchor="middle" fill="#f57c00">Member Service</text>
  
  <rect x="650" y="570" width="220" height="60" rx="5" ry="5" fill="#ffe0b2" stroke="#f57c00" stroke-width="1"/>
  <text x="760" y="605" font-family="Arial" font-size="18" text-anchor="middle" fill="#f57c00">Donation Service</text>
  
  <rect x="900" y="570" width="220" height="60" rx="5" ry="5" fill="#ffe0b2" stroke="#f57c00" stroke-width="1"/>
  <text x="1010" y="605" font-family="Arial" font-size="18" text-anchor="middle" fill="#f57c00">Fundraising Service</text>
  
  <rect x="1150" y="570" width="220" height="60" rx="5" ry="5" fill="#ffe0b2" stroke="#f57c00" stroke-width="1"/>
  <text x="1260" y="605" font-family="Arial" font-size="18" text-anchor="middle" fill="#f57c00">Analytics Service</text>
  
  <rect x="1400" y="570" width="220" height="60" rx="5" ry="5" fill="#ffe0b2" stroke="#f57c00" stroke-width="1"/>
  <text x="1510" y="605" font-family="Arial" font-size="18" text-anchor="middle" fill="#f57c00">Storage Service</text>
  
  <!-- Models -->
  <rect x="100" y="700" width="1600" height="150" rx="10" ry="10" fill="#e1bee7" stroke="#4a148c" stroke-width="2"/>
  <text x="900" y="750" font-family="Arial" font-size="24" text-anchor="middle" font-weight="bold" fill="#4a148c">Model Layer</text>
  
  <!-- Model components -->
  <rect x="200" y="770" width="220" height="60" rx="5" ry="5" fill="#ce93d8" stroke="#7b1fa2" stroke-width="1"/>
  <text x="310" y="805" font-family="Arial" font-size="18" text-anchor="middle" fill="#7b1fa2">User Model</text>
  
  <rect x="450" y="770" width="220" height="60" rx="5" ry="5" fill="#ce93d8" stroke="#7b1fa2" stroke-width="1"/>
  <text x="560" y="805" font-family="Arial" font-size="18" text-anchor="middle" fill="#7b1fa2">Donation Model</text>
  
  <rect x="700" y="770" width="220" height="60" rx="5" ry="5" fill="#ce93d8" stroke="#7b1fa2" stroke-width="1"/>
  <text x="810" y="805" font-family="Arial" font-size="18" text-anchor="middle" fill="#7b1fa2">Fundraising Model</text>
  
  <rect x="950" y="770" width="220" height="60" rx="5" ry="5" fill="#ce93d8" stroke="#7b1fa2" stroke-width="1"/>
  <text x="1060" y="805" font-family="Arial" font-size="18" text-anchor="middle" fill="#7b1fa2">Campaign Model</text>
  
  <rect x="1200" y="770" width="220" height="60" rx="5" ry="5" fill="#ce93d8" stroke="#7b1fa2" stroke-width="1"/>
  <text x="1310" y="805" font-family="Arial" font-size="18" text-anchor="middle" fill="#7b1fa2">Analytics Model</text>
  
  <rect x="1450" y="770" width="220" height="60" rx="5" ry="5" fill="#ce93d8" stroke="#7b1fa2" stroke-width="1"/>
  <text x="1560" y="805" font-family="Arial" font-size="18" text-anchor="middle" fill="#7b1fa2">Region Model</text>

  <!-- Firebase layer -->
  <rect x="100" y="900" width="1600" height="80" rx="10" ry="10" fill="#ffebee" stroke="#b71c1c" stroke-width="2"/>
  <text x="900" y="950" font-family="Arial" font-size="24" text-anchor="middle" font-weight="bold" fill="#b71c1c">Firebase Backend</text>
  
  <!-- Connection lines -->
  <!-- UI to Business Logic -->
  <line x1="260" y1="230" x2="260" y2="370" stroke="#666" stroke-width="2" stroke-dasharray="5,5"/>
  <line x1="510" y1="230" x2="510" y2="370" stroke="#666" stroke-width="2" stroke-dasharray="5,5"/>
  <line x1="760" y1="230" x2="760" y2="370" stroke="#666" stroke-width="2" stroke-dasharray="5,5"/>
  <line x1="1010" y1="230" x2="1010" y2="370" stroke="#666" stroke-width="2" stroke-dasharray="5,5"/>
  <line x1="1260" y1="230" x2="1260" y2="370" stroke="#666" stroke-width="2" stroke-dasharray="5,5"/>
  <line x1="1510" y1="230" x2="1510" y2="370" stroke="#666" stroke-width="2" stroke-dasharray="5,5"/>
  
  <!-- Business Logic to Service -->
  <line x1="260" y1="430" x2="260" y2="570" stroke="#666" stroke-width="2" stroke-dasharray="5,5"/>
  <line x1="510" y1="430" x2="510" y2="570" stroke="#666" stroke-width="2" stroke-dasharray="5,5"/>
  <line x1="760" y1="430" x2="760" y2="570" stroke="#666" stroke-width="2" stroke-dasharray="5,5"/>
  <line x1="1010" y1="430" x2="1010" y2="570" stroke="#666" stroke-width="2" stroke-dasharray="5,5"/>
  <line x1="1260" y1="430" x2="1260" y2="570" stroke="#666" stroke-width="2" stroke-dasharray="5,5"/>
  <line x1="1510" y1="430" x2="1510" y2="570" stroke="#666" stroke-width="2" stroke-dasharray="5,5"/>
  
  <!-- Service to Model -->
  <line x1="260" y1="630" x2="310" y2="770" stroke="#666" stroke-width="2" stroke-dasharray="5,5"/>
  <line x1="510" y1="630" x2="560" y2="770" stroke="#666" stroke-width="2" stroke-dasharray="5,5"/>
  <line x1="760" y1="630" x2="810" y2="770" stroke="#666" stroke-width="2" stroke-dasharray="5,5"/>
  <line x1="1010" y1="630" x2="1060" y2="770" stroke="#666" stroke-width="2" stroke-dasharray="5,5"/>
  <line x1="1260" y1="630" x2="1310" y2="770" stroke="#666" stroke-width="2" stroke-dasharray="5,5"/>
  <line x1="1510" y1="630" x2="1560" y2="770" stroke="#666" stroke-width="2" stroke-dasharray="5,5"/>
  
  <!-- Model to Firebase -->
  <line x1="310" y1="830" x2="310" y2="900" stroke="#666" stroke-width="2" stroke-dasharray="5,5"/>
  <line x1="560" y1="830" x2="560" y2="900" stroke="#666" stroke-width="2" stroke-dasharray="5,5"/>
  <line x1="810" y1="830" x2="810" y2="900" stroke="#666" stroke-width="2" stroke-dasharray="5,5"/>
  <line x1="1060" y1="830" x2="1060" y2="900" stroke="#666" stroke-width="2" stroke-dasharray="5,5"/>
  <line x1="1310" y1="830" x2="1310" y2="900" stroke="#666" stroke-width="2" stroke-dasharray="5,5"/>
  <line x1="1560" y1="830" x2="1560" y2="900" stroke="#666" stroke-width="2" stroke-dasharray="5,5"/>
  
  <!-- Core Components -->
  <rect x="730" y="660" width="320" height="30" rx="5" ry="5" fill="#b2dfdb" stroke="#00796b" stroke-width="1"/>
  <text x="890" y="680" font-family="Arial" font-size="16" text-anchor="middle" fill="#00796b">Core Utils &amp; Routes</text>
  
  <!-- Libraries -->
  <rect x="100" y="660" width="180" height="30" rx="5" ry="5" fill="#b2dfdb" stroke="#00796b" stroke-width="1"/>
  <text x="190" y="680" font-family="Arial" font-size="16" text-anchor="middle" fill="#00796b">Provider</text>
  
  <rect x="300" y="660" width="180" height="30" rx="5" ry="5" fill="#b2dfdb" stroke="#00796b" stroke-width="1"/>
  <text x="390" y="680" font-family="Arial" font-size="16" text-anchor="middle" fill="#00796b">Syncfusion Charts</text>
  
  <rect x="500" y="660" width="180" height="30" rx="5" ry="5" fill="#b2dfdb" stroke="#00796b" stroke-width="1"/>
  <text x="590" y="680" font-family="Arial" font-size="16" text-anchor="middle" fill="#00796b">Pie Chart</text>
  
  <rect x="1090" y="660" width="180" height="30" rx="5" ry="5" fill="#b2dfdb" stroke="#00796b" stroke-width="1"/>
  <text x="1180" y="680" font-family="Arial" font-size="16" text-anchor="middle" fill="#00796b">Gauge Indicator</text>
  
  <rect x="1290" y="660" width="180" height="30" rx="5" ry="5" fill="#b2dfdb" stroke="#00796b" stroke-width="1"/>
  <text x="1380" y="680" font-family="Arial" font-size="16" text-anchor="middle" fill="#00796b">Get</text>
  
  <rect x="1490" y="660" width="180" height="30" rx="5" ry="5" fill="#b2dfdb" stroke="#00796b" stroke-width="1"/>
  <text x="1580" y="680" font-family="Arial" font-size="16" text-anchor="middle" fill="#00796b">Firebase SDK</text>
  
  <!-- Firebase Services -->
  <rect x="250" y="910" width="220" height="60" rx="5" ry="5" fill="#ffcdd2" stroke="#d32f2f" stroke-width="1"/>
  <text x="360" y="945" font-family="Arial" font-size="18" text-anchor="middle" fill="#d32f2f">Firebase Auth</text>
  
  <rect x="500" y="910" width="220" height="60" rx="5" ry="5" fill="#ffcdd2" stroke="#d32f2f" stroke-width="1"/>
  <text x="610" y="945" font-family="Arial" font-size="18" text-anchor="middle" fill="#d32f2f">Firestore</text>
  
  <rect x="750" y="910" width="220" height="60" rx="5" ry="5" fill="#ffcdd2" stroke="#d32f2f" stroke-width="1"/>
  <text x="860" y="945" font-family="Arial" font-size="18" text-anchor="middle" fill="#d32f2f">Firebase Storage</text>
  
  <rect x="1000" y="910" width="220" height="60" rx="5" ry="5" fill="#ffcdd2" stroke="#d32f2f" stroke-width="1"/>
  <text x="1110" y="945" font-family="Arial" font-size="18" text-anchor="middle" fill="#d32f2f">Firebase Analytics</text>
  
  <rect x="1250" y="910" width="220" height="60" rx="5" ry="5" fill="#ffcdd2" stroke="#d32f2f" stroke-width="1"/>
  <text x="1360" y="945" font-family="Arial" font-size="18" text-anchor="middle" fill="#d32f2f">Firebase Hosting</text>
</svg>
